<svg width="241" height="119" viewBox="0 0 241 119" fill="none" xmlns="http://www.w3.org/2000/svg">
<g clip-path="url(#clip0_3_1582)">
<path fill-rule="evenodd" clip-rule="evenodd" d="M220.522 124.133C220.522 178.992 176.051 223.465 121.192 223.465C66.3325 223.465 21.8587 178.992 21.8587 124.133C21.8587 69.2738 66.3325 24.8012 121.192 24.8012C176.051 24.8012 220.522 69.2738 220.522 124.133Z" fill="#3972BC"/>
<path fill-rule="evenodd" clip-rule="evenodd" d="M157.331 31.5843C174.741 41.3144 186.791 59.9195 194.252 77.8522C202.578 97.8649 207.72 121.651 200.702 142.834C194.845 160.516 182.051 175.254 165.925 184.451C147.909 194.724 127.402 197.443 106.902 196.856C84.153 196.206 63.3429 189.602 45.7104 174.91C38.2885 168.724 31.8606 161.515 26.3142 153.634C38.8778 194.089 76.6045 223.465 121.192 223.465C176.051 223.465 220.522 178.992 220.522 124.133C220.522 82.0241 194.32 46.039 157.331 31.5843Z" fill="#2E5AB1"/>
<path fill-rule="evenodd" clip-rule="evenodd" d="M63.7584 43.0279C66.61 43.7468 69.445 44.5415 72.3194 45.1614C74.7597 45.6887 76.2485 48.7275 79.2656 47.6974C80.0011 47.4466 81.2335 48.0086 81.2734 46.7123C81.3114 45.443 80.2443 45.272 79.2012 45.2115C77.6838 45.1241 75.971 45.8854 75.86 42.9533C75.788 41.1066 73.1948 42.9443 71.7025 41.8975C74.069 39.5814 76.2485 37.5778 79.8023 37.9777C81.1884 38.1333 82.206 38.4381 83.0969 39.5917C85.3725 42.5379 87.4882 42.7527 90.3945 40.4816C91.0622 39.9608 91.7639 38.9975 92.5297 40.0083C93.2395 40.9433 92.1082 41.4564 91.5628 42.0531C90.4124 43.3121 89.0612 44.0477 87.2853 43.8677C85.7384 43.7108 85.1306 44.4515 85.31 45.9896C85.483 47.4826 86.4151 47.4839 87.6209 47.5199C90.4757 47.601 92.7897 45.7658 95.579 45.4829C97.0062 45.3389 97.6697 43.8317 96.098 42.6987C95.3847 42.1843 94.8561 41.8448 95.2642 40.9716C95.6234 40.2064 96.3536 39.9427 97.1483 39.9325C98.9801 39.9119 100.812 39.9273 102.591 39.9273C103.096 41.086 102.167 41.4037 101.697 41.8345C100.776 42.6755 99.9145 43.3931 100.648 44.8309C101.303 46.1118 102.43 46.4448 103.626 46.2751C105.282 46.0385 104.685 44.5685 104.613 43.6542C104.456 41.6622 105.734 40.9008 107.189 40.4456C110.624 39.3718 114.149 38.5217 117.504 40.6192C119.919 42.129 123.953 41.8486 123.807 46.3471C123.769 47.4351 127.325 46.9438 125.494 49.3834C124.439 50.7877 122.922 50.1473 121.596 50.3672C121.387 50.4019 121.067 50.4302 121.002 50.5627C118.232 56.162 114.761 51.0115 111.233 51.7458C112.417 49.7255 114.039 49.4953 115.253 48.6774C115.929 48.2221 117.108 48.0331 116.882 46.9477C116.675 45.9677 115.775 45.2514 114.783 45.1691C112.636 44.9904 110.398 44.8129 108.429 45.8571C106.776 46.7342 105.673 48.3559 103.519 48.7442C102.78 48.8767 102.178 51.3098 100.909 52.3309C100.017 53.0472 99.2007 53.1192 98.9519 51.985C98.4501 49.6817 97.1068 50.4881 95.7602 50.87C92.2698 51.859 89.3987 54.0606 86.3337 55.8327C84.2016 57.0635 85.6004 58.9256 86.509 60.3094C87.1539 61.2893 88.312 61.8551 89.5359 62.0249C92.1313 62.3837 94.5149 62.8711 93.7206 66.4629C93.5797 67.1047 93.9027 67.74 94.7456 67.8171C95.6293 67.8969 96.2661 67.4737 96.5025 66.6893C97.3191 63.9745 99.3303 62.7669 101.909 62.2101C103.758 61.8089 103.333 60.3119 103.364 59.0838C103.508 53.1463 106.75 51.369 112.048 54.3088C112.984 54.8284 113.204 55.5318 112.951 56.4603C112.166 59.3256 113.864 59.0221 115.615 58.5115C116.329 58.3019 116.982 57.8711 117.642 57.5007C119.191 56.6301 119.886 57.1458 119.708 58.8317C119.463 61.1234 120.291 62.6281 122.319 63.8819C124.376 65.1538 124.181 67.205 121.981 68.3469C119.75 69.5056 120.006 70.249 122.004 71.2804C123.055 71.8218 125.125 72.4275 123.93 73.8781C122.671 75.4046 120.72 73.8177 119.127 73.4023C117.891 73.0795 117.338 72.2114 118.286 70.9666C118.802 70.2863 119.534 69.5314 118.577 68.7495C117.805 68.1193 117.269 68.981 116.614 69.287C114.998 70.0432 113.42 70.3609 111.872 68.8691C110.506 67.5509 108.749 67.3927 107.772 69.2021C106.518 71.526 109.698 70.856 110.051 71.9028C102.973 74.6266 97.8401 79.9687 92.2779 84.6961C92.0311 84.9057 91.668 85.1243 91.6145 85.3892C90.5849 90.4561 85.7544 91.9106 82.552 94.8916C81.1343 96.211 80.7141 97.6295 80.7979 99.4865C80.836 100.317 82.134 101.911 80.2407 102.03C79.097 102.102 77.2781 101.382 77.3931 99.9109C77.6599 96.4888 75.4306 97.0019 73.4907 97.1318C70.1 97.3594 66.7333 96.6663 63.3094 98.1658C59.282 99.9302 57.5984 103.098 56.1441 106.788C55.1898 109.213 55.9823 111.232 57.7429 112.511C59.3971 113.714 61.6151 113.769 63.5437 112.558C64.9129 111.698 66.2147 110.729 67.5816 109.867C68.2343 109.457 68.7954 108.39 69.7779 109.299C70.4894 109.957 70.1589 110.816 69.8096 111.404C68.0858 114.304 68.6877 115.846 72.2097 115.936C73.2682 115.963 73.6604 116.648 73.7439 117.649C73.8149 118.505 74.059 119.347 74.165 120.203C74.8114 125.41 74.8249 125.297 79.7434 126.16C82.0833 126.572 83.3194 125.397 84.6795 123.908C88.1631 120.094 91.0089 120.026 94.6368 123.691C96.5215 125.594 98.9316 125.376 100.591 124.285C102.926 122.748 104.337 123.601 105.264 125.348C107.03 128.669 109.077 130.681 113.285 130.244C115.721 129.993 116.108 132.837 116.913 134.631C117.556 136.059 116.276 138.202 117.891 139.147C120.293 140.554 122.921 141.651 125.808 141.749C126.564 141.775 127.325 141.803 128.079 141.75C130.996 141.548 133.726 141.602 134.976 145.032C135.188 145.616 136.054 146.177 136.72 146.347C140.098 147.207 139.573 149.837 138.04 151.162C133.593 155.008 133.96 160.171 133.361 165.111C132.936 168.611 130.531 170.9 126.985 170.905C122.352 170.913 121.095 172.334 122.339 176.802C123.064 179.4 122.695 181.332 120.78 183.219C119.409 184.573 117.962 186.075 117.224 187.802C115.28 192.356 111.405 193.909 107.12 194.906C105.366 195.314 104.419 195.898 106.276 197.209C107.988 198.418 107.285 199.286 106.312 200.303C104.734 201.954 105.405 203.14 107.242 203.611C109.252 204.125 109.742 205.122 108.853 206.849C107.651 209.181 108.663 210.652 110.494 212.06C111.334 212.707 112.782 213.4 112.058 214.866C111.48 216.041 110.302 215.099 109.406 215.23C104.813 215.91 102.479 212.376 100.238 209.637C97.524 206.317 94.838 202.58 96.1828 197.604C96.5519 196.242 96.8033 194.498 95.5508 193.29C93.1879 191.006 92.6272 188.263 93.8089 185.371C94.8483 182.828 92.2892 181.416 92.3763 179.212C92.4995 176.084 92.3943 172.946 92.3988 169.812C92.4066 164.308 90.7652 161.754 85.5971 160.045C83.8198 159.459 83.0186 158.713 82.6014 156.835C82.0039 154.134 79.6111 152.442 77.9311 150.385C74.2013 145.819 74.7371 138.84 79.6089 135.68C82.5028 133.804 80.4808 131.602 80.6435 129.593C80.8074 127.58 78.8068 127.927 77.746 127.972C73.7008 128.144 71.0342 126.029 68.9568 122.977C67.766 121.228 66.1997 120.43 64.2362 119.938C62.5019 119.504 60.2164 119.815 59.8106 117.061C59.6955 116.274 58.4368 116.248 57.8199 116.508C54.8164 117.779 52.1234 116.137 49.346 115.654C47.2094 115.284 45.0245 110.796 45.7736 108.663C46.1586 107.573 45.9339 106.891 45.3224 106.027C42.9728 102.704 40.2035 99.5727 39.9625 95.1964C39.9253 94.5032 39.6201 93.837 38.8238 93.9065C37.777 93.9952 37.9369 94.9044 37.8553 95.6452C37.5505 98.4384 38.9185 100.576 40.3759 102.775C41.1954 104.009 42.969 105.855 41.2451 106.993C39.3252 108.261 38.2032 106.199 37.0949 104.618C35.0612 101.718 34.3428 98.6159 34.6739 95.1565C34.8103 93.7419 34.823 92.3234 33.0615 91.6984C30.7987 90.8946 29.7284 89.417 30.5714 86.9337C30.8354 86.1544 30.6061 85.649 29.6346 85.9371C35.1948 71.6816 44.0243 59.7397 55.3908 49.611C58.0401 47.2499 60.7088 44.8913 63.7584 43.0279Z" fill="#87D37F"/>
<path fill-rule="evenodd" clip-rule="evenodd" d="M198.115 185.911C196.219 186.184 195.162 185.511 195.45 183.457C195.839 180.663 194.869 178.357 192.952 176.411C191.012 174.441 191.591 171.973 191.588 169.65C191.585 167.866 191.504 166.267 189.947 165.003C187.821 163.279 187.7 160.899 189.171 158.924C192.17 154.896 191.602 151.388 188.798 147.532C186.115 143.84 183.923 139.831 185.672 134.901C186.057 133.818 185.797 132.787 184.24 132.61C181.798 132.335 179.472 131.948 177.348 130.309C176.182 129.41 174.072 129.561 172.66 130.32C168.745 132.422 164.413 131.165 160.383 132.143C160.089 132.216 159.658 132.205 159.435 132.039C155.747 129.316 153.088 125.604 150.297 122.077C148.689 120.042 149.755 117.265 149.645 114.821C149.6 113.871 150.574 113.397 150.921 112.669C151.469 111.513 152.848 110.278 150.389 109.127C148.7 108.335 148.342 106.471 150.361 105.054C152.129 103.816 153.758 102.367 155.594 101.244C158.299 99.5878 160.198 97.8872 159.95 94.1339C159.744 91.0277 163.347 90.0007 165.297 90.1245C170.965 90.4808 175.914 87.6223 181.402 87.3955C185.335 87.2341 185.577 87.042 185.892 90.844C186.009 92.2413 186.531 92.9524 187.904 93.3295C190.696 94.0991 193.628 94.4456 196.176 96.0168C196.969 96.5053 197.682 96.4454 198.201 95.3001C199.248 92.9927 202.185 91.8878 204.103 93.6148C207.799 96.9492 212.024 96.419 216.302 96.3202C225.045 129.189 219.08 159.072 198.115 185.911Z" fill="#87D37F"/>
<path fill-rule="evenodd" clip-rule="evenodd" d="M213.684 87.8784C207.55 88.0132 207.189 87.8123 205.944 82.2812C205.592 80.7173 204.959 80.9354 203.949 81.4801C203.23 81.8674 202.98 82.5363 202.604 83.2039C202.014 84.2588 202.574 86.489 201.123 86.3039C199.516 86.0977 197.914 84.3144 197.909 82.6355C197.896 79.4205 195.824 77.8857 193.778 76.1737C193.367 75.8327 192.971 75.3541 192.494 75.2285C191.244 74.8994 189.534 74.4578 188.842 75.481C188.046 76.6549 188.898 78.2268 189.973 79.1667C190.932 80.0074 192.139 80.5732 193.265 81.2051C194.251 81.7603 195.109 82.2151 194.55 83.6772C194.08 84.9106 194.556 86.5643 192.702 87.072C191.273 87.4646 190.179 87.22 189.503 85.8042C190.109 85.0547 190.959 85.5187 191.624 85.2556C192.846 84.7691 193.135 84.1742 191.976 83.1973C189.627 81.2144 186.403 80.3035 184.818 77.3701C184.736 77.2181 184.219 77.156 183.986 77.2511C179.642 79.0437 175.24 80.5772 173.232 85.6125C172.002 88.6993 163.584 88.7945 162.254 85.8003C161.355 83.775 161.018 81.2025 162.393 79.2513C163.554 77.6054 165.768 77.5935 167.703 77.6609C168.658 77.694 169.592 78.0589 170.546 78.2043C171.348 78.3259 172.017 78.1382 172.367 77.2564C172.683 76.4646 172.53 75.9635 171.971 75.2589C169.908 72.6692 170.724 70.7207 174.017 70.4655C175.716 70.336 177.029 69.7213 177.7 68.2764C179.288 64.8604 181.985 64.0937 185.408 64.5815C186.284 64.7057 187.615 65.2015 187.962 64.0183C188.237 63.0758 188.031 61.8001 187.595 60.8866C186.956 59.5554 185.862 60.6843 185.074 60.9144C184.088 61.1999 183.411 61.2872 183.033 60.182C182.634 59.02 181.924 58.3868 180.726 57.7919C178.664 56.7647 179.453 54.2742 182.131 52.9786C183.974 52.085 186.569 52.044 186.593 49.0709C196.662 58.4859 205.102 69.1158 210.909 81.7048C211.854 83.7539 212.761 85.8188 213.684 87.8784Z" fill="#87D37F"/>
<path fill-rule="evenodd" clip-rule="evenodd" d="M171.522 69.1501C170.643 68.9563 169.198 69.7085 168.746 68.4698C168.346 67.3728 169.119 66.4487 170.092 65.5223C172.22 63.4918 169.582 63.0066 168.594 62.0744C167.906 61.4231 166.824 61.04 167.273 59.7932C167.586 58.9283 168.242 58.3687 169.163 58.1958C170.304 57.9822 171.251 57.9694 171.587 59.5029C172.17 62.1835 173.198 64.6481 175.78 66.0923C176.817 66.6716 176.307 67.2625 175.808 67.9033C174.702 69.3185 173.131 69.0793 171.522 69.1501Z" fill="#87D37F"/>
<path fill-rule="evenodd" clip-rule="evenodd" d="M163.361 67.8388C163.081 67.7901 162.728 67.811 162.461 67.6672C161.768 67.2938 161.728 66.5657 161.967 65.9882C162.726 64.1712 163.689 62.5004 165.97 62.323C166.88 62.2522 167.723 62.4725 168.085 63.3932C168.525 64.5179 167.802 65.1858 166.962 65.7656C165.83 66.5471 164.873 67.6278 163.361 67.8388Z" fill="#87D37F"/>
<path fill-rule="evenodd" clip-rule="evenodd" d="M114.86 74.7263C114.815 75.7989 113.759 76.1804 113.236 76.9225C112.701 77.6808 111.747 77.7886 110.904 77.3654C110.59 77.2077 110.205 76.6778 110.256 76.3926C110.452 75.327 111.443 75.6841 112.102 75.6343C113.113 75.5566 113.46 73.6491 114.86 74.7263Z" fill="#87D37F"/>
<path fill-rule="evenodd" clip-rule="evenodd" d="M106.912 78.0994C106.262 77.9997 105.97 77.5706 106.161 76.9886C106.278 76.6372 106.652 76.1584 106.951 76.127C107.543 76.0633 107.852 76.5653 107.888 77.1463C107.932 77.8176 107.533 78.0808 106.912 78.0994Z" fill="#87D37F"/>
<path fill-rule="evenodd" clip-rule="evenodd" d="M110.494 212.06C108.663 210.652 107.652 209.181 108.853 206.849C109.742 205.121 109.252 204.125 107.242 203.61C105.405 203.14 104.734 201.954 106.312 200.302C107.285 199.285 107.988 198.418 106.276 197.209C106.073 197.065 105.908 196.932 105.77 196.805C102.628 196.687 99.524 196.45 96.4608 196.097C96.4183 196.62 96.3105 197.136 96.1828 197.604C94.838 202.58 97.524 206.317 100.238 209.637C102.48 212.376 104.814 215.91 109.407 215.23C110.302 215.099 111.48 216.041 112.059 214.866C112.783 213.4 111.334 212.707 110.494 212.06Z" fill="#74C375"/>
<path fill-rule="evenodd" clip-rule="evenodd" d="M216.302 96.3202C212.024 96.419 207.799 96.9492 204.103 93.6148C202.819 92.4597 201.083 92.5766 199.758 93.4673C204.388 109.594 205.965 126.945 200.702 142.834C198.119 150.631 194.183 157.855 189.211 164.284C189.424 164.533 189.665 164.775 189.947 165.003C191.504 166.267 191.585 167.866 191.588 169.65C191.591 171.973 191.012 174.441 192.952 176.411C194.869 178.357 195.839 180.663 195.45 183.457C195.162 185.511 196.743 186.612 198.637 186.34C219.602 159.501 225.045 129.189 216.302 96.3202Z" fill="#74C375"/>
<path fill-rule="evenodd" clip-rule="evenodd" d="M210.909 81.7048C205.102 69.1158 196.662 58.4859 186.593 49.0709C186.569 52.044 183.974 52.085 182.131 52.9786C181.707 53.1836 181.337 53.4215 181.012 53.6753C182.636 55.9491 184.17 58.2903 185.611 60.6777C186.306 60.3155 187.091 59.8383 187.595 60.8866C188.031 61.8001 188.237 63.0758 187.962 64.0183C187.915 64.177 187.847 64.3012 187.768 64.4057C189.855 68.1653 191.727 72.003 193.389 75.8261C193.519 75.9464 193.647 76.0667 193.778 76.1737C195.824 77.8857 197.896 79.4205 197.909 82.6355C197.914 84.3144 199.516 86.0977 201.123 86.3039C202.574 86.489 202.014 84.2588 202.604 83.2039C202.98 82.5363 203.23 81.8674 203.949 81.4801C204.959 80.9354 205.592 80.7173 205.944 82.2812C207.189 87.8123 207.55 88.0132 213.684 87.8784C212.761 85.8188 211.854 83.7539 210.909 81.7048Z" fill="#74C375"/>
<path d="M40.7313 76.0041C42.1132 71.8568 44.4956 67.9549 47.0524 64.4371C50.0695 60.2885 53.6464 56.4688 57.5528 53.1487C59.3851 51.5936 61.3716 50.1551 63.4388 48.9314C64.2517 48.4515 65.0713 47.9801 65.9096 47.5432C66.6985 47.132 67.7671 47.9188 67.0971 48.7583C66.816 49.2309 66.3517 49.6555 65.9911 50.0667C65.1807 50.9554 64.3475 51.8293 63.556 52.7363C61.8412 54.7051 60.1297 56.6738 58.4221 58.6487C55.208 62.364 52.1729 66.234 48.9068 69.9027C47.3323 71.6714 45.7376 73.4119 44.0776 75.1008C43.4652 75.7231 42.836 76.3368 42.1693 76.9001C41.5102 77.4574 40.454 76.883 40.7313 76.0041Z" fill="#B7E4AC"/>
<path d="M34.1677 86.7274C33.9635 86.7274 34.4649 84.4327 34.5383 84.2275C34.9373 83.1167 35.5936 82.0916 36.3459 81.1872C36.8894 80.5333 39.9042 77.5394 40.0903 80.0625C40.2262 81.9096 39.0441 84.1243 37.9435 85.5134C37.3224 86.2961 36.5765 87.0637 35.6765 87.5217C35.0401 87.844 34.2515 87.4463 34.1677 86.7274Z" fill="#B7E4AC"/>
</g>
<g filter="url(#filter0_d_3_1582)">
<path d="M5.02294 92.6579L5.87405 89.6529L18.0549 93.103L20.4955 84.4864L23.1308 85.2328L19.8391 96.8544L5.02294 92.6579Z" fill="#2E5AB1"/>
</g>
<g filter="url(#filter1_d_3_1582)">
<path d="M10.1457 75.6167L11.3217 72.948L26.2786 79.5391L25.1026 82.2077L10.1457 75.6167Z" fill="#2E5AB1"/>
</g>
<g filter="url(#filter2_d_3_1582)">
<path d="M24.9221 74.1881C24.4333 73.9184 24.0462 73.5661 23.761 73.1313C23.4758 72.6964 23.3069 72.1869 23.2541 71.6027C23.1955 71.0153 23.2631 70.3625 23.4568 69.6442C23.6479 68.917 23.9766 68.1307 24.443 67.2852C24.7888 66.6584 25.198 66.0252 25.6708 65.3859C26.1466 64.7407 26.6825 64.1024 27.2784 63.471C26.9405 63.3221 26.5903 63.2565 26.228 63.2741C25.86 63.2886 25.4957 63.3915 25.1352 63.5827C24.7721 63.765 24.4201 64.0359 24.0793 64.3954C23.7416 64.7492 23.4268 65.1907 23.1349 65.7198C22.9763 66.0074 22.8191 66.3332 22.6632 66.6973C22.5074 67.0614 22.3625 67.4465 22.2284 67.8527C22.0944 68.2588 21.9792 68.6716 21.8829 69.091C21.7897 69.5047 21.7293 69.9065 21.7018 70.2963L19.1772 69.9164C19.2518 69.4549 19.3521 68.9739 19.4782 68.4734C19.6074 67.9671 19.7587 67.4617 19.932 66.9572C20.0995 66.4495 20.2872 65.9529 20.495 65.4675C20.7027 64.982 20.9256 64.5236 21.1635 64.0922C22.2136 62.1886 23.48 61.0419 24.9627 60.6521C26.4455 60.2623 28.1904 60.621 30.1975 61.7282L34.6317 64.1742L33.2231 66.7277L32.2655 66.1995C32.2749 66.5497 32.2613 66.9211 32.2248 67.3135C32.1916 67.7002 32.1252 68.1061 32.0256 68.5313C31.9261 68.9565 31.7877 69.3977 31.6105 69.8551C31.4422 70.3098 31.2279 70.7729 30.9678 71.2445C30.53 72.0382 30.0582 72.6894 29.5526 73.1981C29.0501 73.701 28.5355 74.0697 28.0086 74.3041C27.4817 74.5386 26.957 74.6467 26.4344 74.6285C25.9093 74.6014 25.4052 74.4546 24.9221 74.1881ZM26.3206 71.4489C26.4873 71.5409 26.6722 71.5866 26.875 71.586C27.0722 71.5822 27.2835 71.5188 27.5089 71.3956C27.7286 71.2693 27.9568 71.0801 28.1933 70.828C28.4273 70.567 28.6601 70.2266 28.8917 69.8068C29.1391 69.3582 29.3384 68.9018 29.4895 68.4375C29.6406 67.9733 29.7499 67.5235 29.8175 67.0882C29.8851 66.6529 29.9135 66.241 29.9028 65.8526C29.892 65.4641 29.8486 65.1213 29.7724 64.8242L29.3238 64.5768C28.9988 64.9076 28.6926 65.245 28.4053 65.5891C28.1212 65.9274 27.8622 66.2609 27.6284 66.5895C27.3921 66.9092 27.1796 67.2196 26.991 67.5206C26.8057 67.8159 26.6495 68.0786 26.5226 68.3086C26.2593 68.786 26.072 69.2003 25.9608 69.5515C25.8496 69.9027 25.7947 70.2062 25.7961 70.462C25.7917 70.7147 25.8392 70.9209 25.9386 71.0807C26.038 71.2405 26.1653 71.3633 26.3206 71.4489Z" fill="#2E5AB1"/>
</g>
<g filter="url(#filter3_d_3_1582)">
<path d="M29.1803 53.0406L31.0467 50.7999L31.8038 51.4304C31.9272 50.5844 32.144 49.8418 32.4541 49.2026C32.7635 48.5541 33.1304 47.975 33.555 47.4653C34.1477 46.7537 34.8056 46.1947 35.5287 45.7884C36.2519 45.382 37.0196 45.1582 37.832 45.1168C37.8529 44.5785 37.9099 44.079 38.0032 43.6181C38.0914 43.1531 38.2149 42.7174 38.3737 42.3112C38.5275 41.9008 38.7184 41.5126 38.9462 41.1467C39.1689 40.7767 39.4254 40.4175 39.7154 40.0693C40.3249 39.3375 40.9786 38.7579 41.6765 38.3306C42.3694 37.899 43.0871 37.6377 43.8296 37.5467C44.5764 37.4507 45.3396 37.535 46.1192 37.7997C46.898 38.0552 47.6735 38.5045 48.4456 39.1477L52.8363 42.8048L50.9762 45.038L46.9489 41.6835C46.4594 41.2758 45.964 40.9828 45.4627 40.8046C44.9606 40.6172 44.4733 40.5404 44.0006 40.5741C43.5272 40.5986 43.0773 40.7282 42.651 40.963C42.2238 41.1885 41.8379 41.5081 41.4932 41.9219C41.304 42.149 41.1334 42.4001 40.9812 42.6751C40.824 42.946 40.6963 43.2328 40.598 43.5355C40.5038 43.8333 40.4455 44.1394 40.4228 44.4539C40.3952 44.7642 40.4137 45.0703 40.4785 45.3722L46.5119 50.3977L44.6518 52.6309L40.6245 49.2764C40.135 48.8686 39.6396 48.5756 39.1383 48.3975C38.6362 48.2101 38.1489 48.1332 37.6763 48.167C37.2028 48.1915 36.7508 48.3236 36.3203 48.5634C35.889 48.7939 35.4988 49.1186 35.1499 49.5375C34.9355 49.7949 34.7468 50.0779 34.5837 50.3866C34.4198 50.686 34.2849 50.9968 34.179 51.3189C34.0773 51.6359 34.0064 51.9572 33.9661 52.2827C33.93 52.6031 33.9284 52.918 33.9612 53.2275L39.9795 58.2403L38.1131 60.4811L29.1803 53.0406Z" fill="#2E5AB1"/>
</g>
<g filter="url(#filter4_d_3_1582)">
<path d="M55.6456 38.219C55.3188 37.7664 55.1194 37.2825 55.0473 36.7675C54.9753 36.2525 55.0402 35.7196 55.242 35.1688C55.4401 34.6127 55.7801 34.0514 56.2621 33.4847C56.7456 32.9089 57.3788 32.3384 58.1616 31.7733C58.7421 31.3542 59.3826 30.9567 60.0832 30.5806C60.7891 30.2006 61.5463 29.8525 62.3549 29.5361C62.113 29.2571 61.8244 29.0482 61.4893 28.9094C61.1504 28.7653 60.7771 28.7026 60.3694 28.7214C59.9633 28.7311 59.5293 28.8257 59.0675 29.0051C58.611 29.1807 58.1378 29.4454 57.6478 29.799C57.3816 29.9913 57.1002 30.2187 56.8037 30.4813C56.5072 30.7439 56.2117 31.0302 55.917 31.3401C55.6223 31.6501 55.3417 31.9741 55.0754 32.3121C54.8144 32.6463 54.5882 32.9838 54.3967 33.3245L52.2765 31.9023C52.5411 31.517 52.8373 31.1249 53.1651 30.7262C53.4983 30.3237 53.851 29.9314 54.2233 29.5493C54.5916 29.1619 54.9735 28.7931 55.3688 28.4429C55.764 28.0928 56.1614 27.7735 56.5608 27.4852C58.3236 26.2128 59.9585 25.7171 61.4656 25.9981C62.9727 26.2792 64.3971 27.3491 65.7388 29.2077L68.7027 33.3137L66.3382 35.0206L65.6981 34.1339C65.5569 34.4545 65.386 34.7844 65.1854 35.1237C64.9901 35.4591 64.7566 35.7977 64.4849 36.1396C64.2133 36.4815 63.8997 36.8213 63.544 37.1591C63.1975 37.4983 62.806 37.8255 62.3693 38.1408C61.6343 38.6713 60.9296 39.0585 60.2551 39.3024C59.5859 39.5424 58.9631 39.6558 58.3865 39.6427C57.81 39.6295 57.2894 39.5031 56.8247 39.2634C56.3615 39.0145 55.9685 38.6664 55.6456 38.219ZM58.0802 36.34C58.1917 36.4945 58.3393 36.6147 58.523 36.7009C58.7028 36.7817 58.921 36.8146 59.1775 36.7995C59.4301 36.7792 59.7172 36.7056 60.0388 36.5788C60.3618 36.4428 60.7177 36.2344 61.1065 35.9538C61.5219 35.6539 61.8971 35.3264 62.232 34.9712C62.567 34.616 62.858 34.2561 63.1051 33.8914C63.3522 33.5267 63.5538 33.1665 63.7101 32.8107C63.8664 32.4548 63.9735 32.1264 64.0316 31.8252L63.7317 31.4098C63.2966 31.5701 62.8756 31.7444 62.4688 31.9327C62.0673 32.1172 61.6907 32.308 61.3389 32.5053C60.9887 32.6933 60.664 32.8832 60.3648 33.0748C60.0711 33.2625 59.8177 33.4333 59.6046 33.5871C59.1626 33.9062 58.8163 34.2007 58.5657 34.4707C58.3151 34.7408 58.1357 34.9917 58.0277 35.2236C57.9158 35.4502 57.8707 35.6569 57.8922 35.8439C57.9138 36.0309 57.9764 36.1962 58.0802 36.34Z" fill="#2E5AB1"/>
</g>
<g filter="url(#filter5_d_3_1582)">
<path d="M72.0157 28.1878C72.9319 28.2619 73.8633 28.1892 74.81 27.9697C75.7567 27.7502 76.6745 27.4205 77.5633 26.9804C78.1637 26.6832 78.6437 26.3943 79.0031 26.1137C79.3626 25.8331 79.6309 25.5684 79.8082 25.3194C79.9854 25.0704 80.0832 24.8387 80.1017 24.6244C80.1202 24.41 80.0872 24.2175 80.0026 24.0468C79.8803 23.7996 79.6665 23.6416 79.3612 23.5728C79.0619 23.5011 78.665 23.5877 78.1706 23.8325C77.941 23.9461 77.7011 24.0832 77.4508 24.2438C77.2005 24.4044 76.9369 24.5752 76.6601 24.7562C76.3862 24.9284 76.0976 25.1079 75.7943 25.2947C75.4969 25.4786 75.1864 25.6507 74.8626 25.811C74.1563 26.1607 73.515 26.3828 72.9389 26.4775C72.3687 26.5693 71.8621 26.5599 71.419 26.4495C70.9759 26.339 70.5948 26.1393 70.2758 25.8502C69.9538 25.5551 69.6894 25.1987 69.4825 24.7808C69.2202 24.251 69.1019 23.7012 69.1277 23.1315C69.1534 22.5617 69.3157 22.0013 69.6146 21.4503C69.9105 20.8934 70.3371 20.3634 70.8942 19.8603C71.4572 19.3544 72.139 18.9033 72.9396 18.5069C73.3575 18.3 73.8062 18.1109 74.2856 17.9395C74.7681 17.7592 75.2504 17.6011 75.7327 17.4649C76.215 17.3288 76.6869 17.2161 77.1484 17.1268C77.607 17.0317 78.0229 16.9687 78.396 16.9379L78.5803 19.3752C77.7928 19.4572 77.0314 19.5923 76.2964 19.7803C75.5642 19.9595 74.848 20.2226 74.1475 20.5693C73.6589 20.8112 73.2629 21.0549 72.9594 21.3005C72.6588 21.5372 72.4332 21.7698 72.2825 21.9984C72.1289 22.221 72.0414 22.4365 72.02 22.645C72.0016 22.8447 72.0346 23.0299 72.1191 23.2006C72.1803 23.3242 72.2592 23.4244 72.3559 23.5011C72.4584 23.575 72.5845 23.6224 72.7342 23.6436C72.8869 23.656 73.0647 23.6376 73.2676 23.5884C73.4734 23.5305 73.7117 23.4345 73.9825 23.3004C74.2297 23.1781 74.4844 23.0337 74.7465 22.8673C75.0085 22.7009 75.2824 22.5286 75.568 22.3506C75.8507 22.1666 76.1437 21.9813 76.447 21.7945C76.7562 21.6048 77.0785 21.4269 77.4141 21.2608C78.038 20.9519 78.6189 20.7559 79.1568 20.6728C79.7005 20.5868 80.191 20.6005 80.6282 20.7139C81.0655 20.8272 81.4495 21.0255 81.7803 21.3088C82.1111 21.5921 82.3814 21.9457 82.5912 22.3695C82.8622 22.9169 82.9878 23.4887 82.9678 24.0849C82.9478 24.6811 82.7736 25.2767 82.4452 25.8717C82.1139 26.4608 81.6226 27.0376 80.9712 27.6019C80.3257 28.1633 79.5144 28.6859 78.5372 29.1697C77.9368 29.4669 77.3381 29.7157 76.741 29.916C76.1469 30.1222 75.5661 30.2888 74.9987 30.4158C74.4283 30.537 73.8772 30.6229 73.3454 30.6737C72.8194 30.7215 72.3258 30.7387 71.8647 30.7251L72.0157 28.1878Z" fill="#2E5AB1"/>
</g>
<g filter="url(#filter6_d_3_1582)">
<path d="M91.1807 18.3786C90.9748 17.5703 90.9441 16.7715 91.0888 15.9823C91.2397 15.1915 91.5503 14.4549 92.0203 13.7726C92.4968 13.0886 93.1257 12.4845 93.9071 11.96C94.6949 11.434 95.6266 11.034 96.7023 10.7599C97.7779 10.4859 98.7843 10.3922 99.7214 10.4788C100.665 10.5637 101.506 10.7934 102.245 11.1676C102.991 11.5402 103.616 12.0384 104.121 12.6622C104.632 13.2844 104.99 13.9996 105.196 14.808C105.402 15.6163 105.429 16.4159 105.278 17.2067C105.134 17.9959 104.823 18.7324 104.347 19.4164C103.877 20.0987 103.248 20.7029 102.46 21.2289C101.679 21.7534 100.75 22.1526 99.6745 22.4266C98.5989 22.7007 97.5893 22.7952 96.6459 22.7102C95.7088 22.6236 94.8675 22.394 94.1218 22.0214C93.3826 21.6472 92.7575 21.1489 92.2465 20.5268C91.7419 19.903 91.3867 19.1869 91.1807 18.3786ZM94.1499 17.6221C94.2651 18.074 94.4636 18.481 94.7456 18.8429C95.0323 19.1969 95.3873 19.486 95.8104 19.7103C96.2383 19.9266 96.724 20.0639 97.2675 20.122C97.8157 20.1721 98.4081 20.116 99.0446 19.9539C99.681 19.7917 100.225 19.5583 100.676 19.2536C101.132 18.9409 101.492 18.5881 101.758 18.195C102.029 17.7939 102.202 17.3702 102.278 16.9238C102.359 16.4694 102.342 16.0163 102.227 15.5644C102.112 15.1125 101.91 14.7064 101.622 14.3461C101.34 13.9841 100.985 13.695 100.557 13.4787C100.134 13.2543 99.648 13.1171 99.0997 13.067C98.5563 13.0089 97.9663 13.0609 97.3298 13.2231C96.6933 13.3853 96.1472 13.6227 95.6914 13.9354C95.2403 14.24 94.8795 14.5929 94.6089 14.994C94.343 15.3871 94.1697 15.8108 94.0889 16.2652C94.0144 16.7179 94.0348 17.1702 94.1499 17.6221Z" fill="#2E5AB1"/>
</g>
<g filter="url(#filter7_d_3_1582)">
<path d="M110.976 11.2017L108.994 11.3857L108.792 9.20785L110.774 9.02392C110.701 8.23912 110.747 7.53229 110.913 6.90343C111.079 6.26803 111.351 5.72162 111.731 5.26421C112.117 4.79966 112.6 4.42827 113.181 4.15007C113.769 3.87125 114.442 3.69664 115.2 3.62622C115.73 3.57705 116.255 3.58111 116.775 3.63841C117.294 3.68916 117.758 3.79115 118.168 3.94439L117.365 6.48269C117.2 6.4057 116.969 6.34132 116.674 6.28955C116.386 6.23717 116.072 6.22677 115.732 6.25833C115.064 6.32025 114.543 6.55999 114.166 6.97755C113.795 7.38797 113.632 7.98025 113.678 8.7544L117.337 8.41477L117.539 10.5926L113.88 10.9322L114.752 20.3302L111.848 20.5997L110.976 11.2017Z" fill="#2E5AB1"/>
</g>
<g filter="url(#filter8_d_3_1582)">
<path d="M129.73 11.1526L126.928 10.9686L127.071 8.78609L129.873 8.97012L130.11 5.36214L133.02 5.55328L132.783 9.16125L135.585 9.34528L135.441 11.5278L132.64 11.3437L132.021 20.7618L129.111 20.5707L129.73 11.1526Z" fill="#2E5AB1"/>
</g>
<g filter="url(#filter9_d_3_1582)">
<path d="M140.931 5.59941L143.8 6.12389L142.794 11.6287C143.455 11.409 144.171 11.2696 144.943 11.2104C145.722 11.1525 146.518 11.1979 147.332 11.3467C148.275 11.5192 149.096 11.8128 149.795 12.2277C150.5 12.6437 151.067 13.1613 151.494 13.7803C151.923 14.3928 152.209 15.096 152.351 15.8898C152.499 16.6848 152.488 17.5475 152.318 18.4779L151.29 24.099L148.431 23.5763L149.438 18.0715C149.537 17.5288 149.54 17.0186 149.447 16.5409C149.355 16.0567 149.171 15.6224 148.894 15.2379C148.617 14.8534 148.252 14.5297 147.8 14.2666C147.355 13.9983 146.829 13.8086 146.221 13.6976C145.491 13.5641 144.791 13.5564 144.122 13.6744C143.453 13.7924 142.85 13.986 142.313 14.2551L140.862 22.1925L137.994 21.668L140.931 5.59941Z" fill="#2E5AB1"/>
</g>
<g filter="url(#filter10_d_3_1582)">
<path d="M156.513 20.3347C156.784 19.5947 157.194 18.944 157.743 18.3827C158.294 17.8152 158.948 17.3764 159.705 17.0665C160.462 16.7565 161.308 16.5977 162.241 16.5901C163.18 16.5848 164.174 16.7744 165.222 17.1588C166.264 17.5409 167.144 18.0419 167.861 18.6616C168.587 19.2775 169.14 19.963 169.521 20.7182C169.908 21.4757 170.121 22.2779 170.16 23.1248C170.205 23.9739 170.074 24.8179 169.767 25.6565C169.728 25.7613 169.683 25.8743 169.632 25.9954C169.589 26.1125 169.543 26.2182 169.495 26.3123L159.172 22.527C159.169 22.8968 159.247 23.2649 159.407 23.6312C159.573 23.9997 159.817 24.355 160.139 24.6971C160.461 25.0391 160.861 25.3606 161.338 25.6616C161.818 25.9563 162.372 26.2191 163.001 26.4497C163.63 26.6804 164.28 26.8451 164.95 26.944C165.623 27.0367 166.28 27.0854 166.922 27.0899L167.08 29.5196C166.662 29.5549 166.244 29.5695 165.826 29.5633C165.417 29.5532 164.996 29.5179 164.564 29.4572C164.14 29.3927 163.701 29.3017 163.247 29.1843C162.8 29.0692 162.335 28.9234 161.854 28.7471C160.627 28.2971 159.605 27.7545 158.789 27.1193C157.973 26.4841 157.347 25.7964 156.912 25.0562C156.476 24.316 156.228 23.5429 156.167 22.7369C156.106 21.9309 156.221 21.1302 156.513 20.3347ZM167.401 23.1207C167.414 22.7824 167.362 22.4453 167.248 22.1094C167.141 21.7696 166.969 21.4476 166.731 21.1434C166.495 20.833 166.194 20.5477 165.827 20.2874C165.461 20.0272 165.034 19.8077 164.547 19.6291C164.029 19.4392 163.536 19.3248 163.068 19.2859C162.599 19.247 162.168 19.2675 161.775 19.3472C161.382 19.427 161.03 19.5568 160.72 19.7366C160.415 19.9187 160.16 20.1366 159.955 20.3903L167.401 23.1207Z" fill="#2E5AB1"/>
</g>
<g filter="url(#filter11_d_3_1582)">
<path d="M183.38 22.4351L186.208 24.3383L184.124 34.9178L183.583 37.4513L185.554 35.8804L188.854 33.7305L190.083 26.9455L192.747 28.7386L192.01 31.8642L194.562 29.9597L197.226 31.7529L191.404 35.4466L190.635 39.3946L190.122 41.8516L192.047 40.2969L201.101 34.3601L203.929 36.2632L189.692 45.2435L187.125 43.5164L187.694 40.218L188.426 37.1361L185.847 38.9749L182.989 40.7332L180.423 39.006L183.38 22.4351Z" fill="#2E5AB1"/>
</g>
<g filter="url(#filter12_d_3_1582)">
<path d="M200.412 48.513C201.027 47.9494 201.716 47.5449 202.48 47.2993C203.249 47.0585 204.044 46.984 204.868 47.0757C205.696 47.1723 206.526 47.4409 207.357 47.8817C208.193 48.3272 208.986 48.9592 209.736 49.7776C210.486 50.596 211.044 51.4385 211.411 52.3052C211.782 53.1768 211.977 54.0268 211.997 54.8551C212.021 55.6883 211.877 56.4746 211.566 57.2142C211.259 57.9585 210.798 58.6125 210.183 59.176C209.568 59.7396 208.877 60.1417 208.109 60.3825C207.345 60.6281 206.549 60.7026 205.721 60.606C204.897 60.5143 204.068 60.2457 203.232 59.8001C202.4 59.3594 201.61 58.7298 200.86 57.9114C200.11 57.0931 199.549 56.2481 199.178 55.3765C198.812 54.5098 198.616 53.6598 198.592 52.8267C198.572 51.9983 198.716 51.212 199.023 50.4676C199.334 49.7281 199.797 49.0765 200.412 48.513ZM202.482 50.772C202.138 51.087 201.874 51.4544 201.688 51.8739C201.512 52.2939 201.425 52.7434 201.427 53.2223C201.439 53.7017 201.547 54.1945 201.753 54.7009C201.968 55.2077 202.297 55.7032 202.741 56.1875C203.185 56.6717 203.647 57.0406 204.129 57.294C204.62 57.5479 205.102 57.6991 205.574 57.7476C206.055 57.7965 206.51 57.7489 206.94 57.605C207.378 57.4614 207.769 57.2321 208.113 56.917C208.457 56.602 208.72 56.2322 208.901 55.8078C209.087 55.3882 209.174 54.9388 209.162 54.4594C209.16 53.9805 209.051 53.4876 208.836 52.9808C208.63 52.4744 208.306 51.9791 207.862 51.4949C207.418 51.0106 206.951 50.6416 206.46 50.3877C205.978 50.1342 205.496 49.9831 205.015 49.9342C204.543 49.8857 204.088 49.9332 203.649 50.0768C203.215 50.2252 202.826 50.4569 202.482 50.772Z" fill="#2E5AB1"/>
</g>
<g filter="url(#filter13_d_3_1582)">
<path d="M217.35 60.431L218.961 62.8623L217.564 63.7872C218.319 64.0591 219.04 64.3973 219.725 64.802C220.411 65.2066 221.026 65.6539 221.571 66.1437L219.819 68.3327C219.105 67.4579 218.349 66.7734 217.549 66.2792C216.758 65.7868 215.92 65.5146 215.034 65.4628L209.268 69.2819L207.658 66.8505L217.35 60.431Z" fill="#2E5AB1"/>
</g>
<g filter="url(#filter14_d_3_1582)">
<path d="M227.798 68.8168L229.16 71.3959L214.704 79.0248L213.343 76.4457L227.798 68.8168Z" fill="#2E5AB1"/>
</g>
<g filter="url(#filter15_d_3_1582)">
<path d="M221.606 80.2656C222.462 79.9112 223.299 79.7528 224.118 79.7904C224.943 79.8255 225.715 80.0247 226.435 80.388C227.162 80.7548 227.818 81.2726 228.4 81.9412C228.991 82.6134 229.476 83.4047 229.853 84.3149C230.013 84.7033 230.147 85.0956 230.255 85.492C230.365 85.8944 230.449 86.2861 230.507 86.6672C230.568 87.0543 230.6 87.4247 230.605 87.7784C230.617 88.1356 230.603 88.4615 230.562 88.756L235.695 86.6297L236.811 89.324L221.71 95.5784L220.594 92.8841L221.605 92.4656C221.343 92.2968 221.073 92.0818 220.794 91.8205C220.515 91.5592 220.244 91.2661 219.982 90.9412C219.719 90.6162 219.475 90.2661 219.248 89.8907C219.018 89.5239 218.822 89.1464 218.662 88.758C218.285 87.8478 218.071 86.9551 218.022 86.0799C217.974 85.2108 218.08 84.4026 218.34 83.6554C218.599 82.9082 219.001 82.2403 219.547 81.6519C220.101 81.067 220.787 80.6049 221.606 80.2656ZM222.779 83.0964C222.348 83.2749 221.977 83.5282 221.665 83.8565C221.355 84.1908 221.122 84.5791 220.964 85.0213C220.814 85.4671 220.749 85.9528 220.767 86.4783C220.794 87.0073 220.926 87.557 221.162 88.1275C221.313 88.4916 221.497 88.8418 221.715 89.1783C221.938 89.5122 222.183 89.8197 222.449 90.1006C222.717 90.3877 223.002 90.6391 223.305 90.855C223.61 91.0769 223.92 91.2506 224.235 91.3761L227.958 89.8342C228.064 89.4706 228.129 89.1057 228.155 88.7395C228.181 88.3732 228.178 88.0122 228.144 87.6565C228.11 87.3007 228.048 86.9532 227.958 86.614C227.873 86.2723 227.768 85.9497 227.642 85.6463C227.386 85.0274 227.072 84.5103 226.701 84.0953C226.339 83.6837 225.943 83.3714 225.513 83.1583C225.086 82.9512 224.639 82.8414 224.172 82.8288C223.704 82.8162 223.24 82.9054 222.779 83.0964Z" fill="#2E5AB1"/>
</g>
<defs>
<filter id="filter0_d_3_1582" x="3.76187" y="80.1955" width="20.63" height="18.3403" filterUnits="userSpaceOnUse" color-interpolation-filters="sRGB">
<feFlood flood-opacity="0" result="BackgroundImageFix"/>
<feColorMatrix in="SourceAlpha" type="matrix" values="0 0 0 0 0 0 0 0 0 0 0 0 0 0 0 0 0 0 127 0" result="hardAlpha"/>
<feOffset dy="0.42036"/>
<feGaussianBlur stdDeviation="0.63054"/>
<feComposite in2="hardAlpha" operator="out"/>
<feColorMatrix type="matrix" values="0 0 0 0 0 0 0 0 0 0 0 0 0 0 0 0 0 0 0.4 0"/>
<feBlend mode="normal" in2="BackgroundImageFix" result="effect1_dropShadow_3_1582"/>
<feBlend mode="normal" in="SourceGraphic" in2="effect1_dropShadow_3_1582" result="shape"/>
</filter>
<filter id="filter1_d_3_1582" x="8.88461" y="72.1073" width="18.6551" height="11.7818" filterUnits="userSpaceOnUse" color-interpolation-filters="sRGB">
<feFlood flood-opacity="0" result="BackgroundImageFix"/>
<feColorMatrix in="SourceAlpha" type="matrix" values="0 0 0 0 0 0 0 0 0 0 0 0 0 0 0 0 0 0 127 0" result="hardAlpha"/>
<feOffset dy="0.42036"/>
<feGaussianBlur stdDeviation="0.63054"/>
<feComposite in2="hardAlpha" operator="out"/>
<feColorMatrix type="matrix" values="0 0 0 0 0 0 0 0 0 0 0 0 0 0 0 0 0 0 0.4 0"/>
<feBlend mode="normal" in2="BackgroundImageFix" result="effect1_dropShadow_3_1582"/>
<feBlend mode="normal" in="SourceGraphic" in2="effect1_dropShadow_3_1582" result="shape"/>
</filter>
<filter id="filter2_d_3_1582" x="16.5095" y="57.6183" width="19.5644" height="20.1214" filterUnits="userSpaceOnUse" color-interpolation-filters="sRGB">
<feFlood flood-opacity="0" result="BackgroundImageFix"/>
<feColorMatrix in="SourceAlpha" type="matrix" values="0 0 0 0 0 0 0 0 0 0 0 0 0 0 0 0 0 0 127 0" result="hardAlpha"/>
<feOffset dy="0.42036"/>
<feGaussianBlur stdDeviation="0.63054"/>
<feComposite in2="hardAlpha" operator="out"/>
<feColorMatrix type="matrix" values="0 0 0 0 0 0 0 0 0 0 0 0 0 0 0 0 0 0 0.4 0"/>
<feBlend mode="normal" in2="BackgroundImageFix" result="effect1_dropShadow_3_1582"/>
<feBlend mode="normal" in="SourceGraphic" in2="effect1_dropShadow_3_1582" result="shape"/>
</filter>
<filter id="filter3_d_3_1582" x="27.7603" y="34.3913" width="26.3371" height="27.7712" filterUnits="userSpaceOnUse" color-interpolation-filters="sRGB">
<feFlood flood-opacity="0" result="BackgroundImageFix"/>
<feColorMatrix in="SourceAlpha" type="matrix" values="0 0 0 0 0 0 0 0 0 0 0 0 0 0 0 0 0 0 127 0" result="hardAlpha"/>
<feOffset dy="0.42036"/>
<feGaussianBlur stdDeviation="0.63054"/>
<feComposite in2="hardAlpha" operator="out"/>
<feColorMatrix type="matrix" values="0 0 0 0 0 0 0 0 0 0 0 0 0 0 0 0 0 0 0.4 0"/>
<feBlend mode="normal" in2="BackgroundImageFix" result="effect1_dropShadow_3_1582"/>
<feBlend mode="normal" in="SourceGraphic" in2="effect1_dropShadow_3_1582" result="shape"/>
</filter>
<filter id="filter4_d_3_1582" x="49.6041" y="22.879" width="20.4808" height="20.1609" filterUnits="userSpaceOnUse" color-interpolation-filters="sRGB">
<feFlood flood-opacity="0" result="BackgroundImageFix"/>
<feColorMatrix in="SourceAlpha" type="matrix" values="0 0 0 0 0 0 0 0 0 0 0 0 0 0 0 0 0 0 127 0" result="hardAlpha"/>
<feOffset dy="0.42036"/>
<feGaussianBlur stdDeviation="0.63054"/>
<feComposite in2="hardAlpha" operator="out"/>
<feColorMatrix type="matrix" values="0 0 0 0 0 0 0 0 0 0 0 0 0 0 0 0 0 0 0.4 0"/>
<feBlend mode="normal" in2="BackgroundImageFix" result="effect1_dropShadow_3_1582"/>
<feBlend mode="normal" in="SourceGraphic" in2="effect1_dropShadow_3_1582" result="shape"/>
</filter>
<filter id="filter5_d_3_1582" x="65.957" y="14.5889" width="19.8011" height="19.2216" filterUnits="userSpaceOnUse" color-interpolation-filters="sRGB">
<feFlood flood-opacity="0" result="BackgroundImageFix"/>
<feColorMatrix in="SourceAlpha" type="matrix" values="0 0 0 0 0 0 0 0 0 0 0 0 0 0 0 0 0 0 127 0" result="hardAlpha"/>
<feOffset dy="0.42036"/>
<feGaussianBlur stdDeviation="0.63054"/>
<feComposite in2="hardAlpha" operator="out"/>
<feColorMatrix type="matrix" values="0 0 0 0 0 0 0 0 0 0 0 0 0 0 0 0 0 0 0.4 0"/>
<feBlend mode="normal" in2="BackgroundImageFix" result="effect1_dropShadow_3_1582"/>
<feBlend mode="normal" in="SourceGraphic" in2="effect1_dropShadow_3_1582" result="shape"/>
</filter>
<filter id="filter6_d_3_1582" x="88.4335" y="8.13389" width="19.5097" height="17.7595" filterUnits="userSpaceOnUse" color-interpolation-filters="sRGB">
<feFlood flood-opacity="0" result="BackgroundImageFix"/>
<feColorMatrix in="SourceAlpha" type="matrix" values="0 0 0 0 0 0 0 0 0 0 0 0 0 0 0 0 0 0 127 0" result="hardAlpha"/>
<feOffset dy="0.42036"/>
<feGaussianBlur stdDeviation="0.63054"/>
<feComposite in2="hardAlpha" operator="out"/>
<feColorMatrix type="matrix" values="0 0 0 0 0 0 0 0 0 0 0 0 0 0 0 0 0 0 0.4 0"/>
<feBlend mode="normal" in2="BackgroundImageFix" result="effect1_dropShadow_3_1582"/>
<feBlend mode="normal" in="SourceGraphic" in2="effect1_dropShadow_3_1582" result="shape"/>
</filter>
<filter id="filter7_d_3_1582" x="107.072" y="2.51508" width="13.8361" height="19.95" filterUnits="userSpaceOnUse" color-interpolation-filters="sRGB">
<feFlood flood-opacity="0" result="BackgroundImageFix"/>
<feColorMatrix in="SourceAlpha" type="matrix" values="0 0 0 0 0 0 0 0 0 0 0 0 0 0 0 0 0 0 127 0" result="hardAlpha"/>
<feOffset dy="0.42036"/>
<feGaussianBlur stdDeviation="0.63054"/>
<feComposite in2="hardAlpha" operator="out"/>
<feColorMatrix type="matrix" values="0 0 0 0 0 0 0 0 0 0 0 0 0 0 0 0 0 0 0.4 0"/>
<feBlend mode="normal" in2="BackgroundImageFix" result="effect1_dropShadow_3_1582"/>
<feBlend mode="normal" in="SourceGraphic" in2="effect1_dropShadow_3_1582" result="shape"/>
</filter>
<filter id="filter8_d_3_1582" x="125.048" y="4.33738" width="12.0347" height="18.2899" filterUnits="userSpaceOnUse" color-interpolation-filters="sRGB">
<feFlood flood-opacity="0" result="BackgroundImageFix"/>
<feColorMatrix in="SourceAlpha" type="matrix" values="0 0 0 0 0 0 0 0 0 0 0 0 0 0 0 0 0 0 127 0" result="hardAlpha"/>
<feOffset dy="0.42036"/>
<feGaussianBlur stdDeviation="0.63054"/>
<feComposite in2="hardAlpha" operator="out"/>
<feColorMatrix type="matrix" values="0 0 0 0 0 0 0 0 0 0 0 0 0 0 0 0 0 0 0.4 0"/>
<feBlend mode="normal" in2="BackgroundImageFix" result="effect1_dropShadow_3_1582"/>
<feBlend mode="normal" in="SourceGraphic" in2="effect1_dropShadow_3_1582" result="shape"/>
</filter>
<filter id="filter9_d_3_1582" x="136.732" y="4.75868" width="18.7567" height="21.0218" filterUnits="userSpaceOnUse" color-interpolation-filters="sRGB">
<feFlood flood-opacity="0" result="BackgroundImageFix"/>
<feColorMatrix in="SourceAlpha" type="matrix" values="0 0 0 0 0 0 0 0 0 0 0 0 0 0 0 0 0 0 127 0" result="hardAlpha"/>
<feOffset dy="0.42036"/>
<feGaussianBlur stdDeviation="0.63054"/>
<feComposite in2="hardAlpha" operator="out"/>
<feColorMatrix type="matrix" values="0 0 0 0 0 0 0 0 0 0 0 0 0 0 0 0 0 0 0.4 0"/>
<feBlend mode="normal" in2="BackgroundImageFix" result="effect1_dropShadow_3_1582"/>
<feBlend mode="normal" in="SourceGraphic" in2="effect1_dropShadow_3_1582" result="shape"/>
</filter>
<filter id="filter10_d_3_1582" x="153.166" y="13.8793" width="20.0701" height="18.7404" filterUnits="userSpaceOnUse" color-interpolation-filters="sRGB">
<feFlood flood-opacity="0" result="BackgroundImageFix"/>
<feColorMatrix in="SourceAlpha" type="matrix" values="0 0 0 0 0 0 0 0 0 0 0 0 0 0 0 0 0 0 127 0" result="hardAlpha"/>
<feOffset dy="0.42036"/>
<feGaussianBlur stdDeviation="0.63054"/>
<feComposite in2="hardAlpha" operator="out"/>
<feColorMatrix type="matrix" values="0 0 0 0 0 0 0 0 0 0 0 0 0 0 0 0 0 0 0.4 0"/>
<feBlend mode="normal" in2="BackgroundImageFix" result="effect1_dropShadow_3_1582"/>
<feBlend mode="normal" in="SourceGraphic" in2="effect1_dropShadow_3_1582" result="shape"/>
</filter>
<filter id="filter11_d_3_1582" x="173.522" y="21.5944" width="31.6682" height="29.1259" filterUnits="userSpaceOnUse" color-interpolation-filters="sRGB">
<feFlood flood-opacity="0" result="BackgroundImageFix"/>
<feColorMatrix in="SourceAlpha" type="matrix" values="0 0 0 0 0 0 0 0 0 0 0 0 0 0 0 0 0 0 127 0" result="hardAlpha"/>
<feOffset dy="0.42036"/>
<feGaussianBlur stdDeviation="0.63054"/>
<feComposite in2="hardAlpha" operator="out"/>
<feColorMatrix type="matrix" values="0 0 0 0 0 0 0 0 0 0 0 0 0 0 0 0 0 0 0.4 0"/>
<feBlend mode="normal" in2="BackgroundImageFix" result="effect1_dropShadow_3_1582"/>
<feBlend mode="normal" in="SourceGraphic" in2="effect1_dropShadow_3_1582" result="shape"/>
</filter>
<filter id="filter12_d_3_1582" x="194.713" y="43.6053" width="21.1696" height="21.3191" filterUnits="userSpaceOnUse" color-interpolation-filters="sRGB">
<feFlood flood-opacity="0" result="BackgroundImageFix"/>
<feColorMatrix in="SourceAlpha" type="matrix" values="0 0 0 0 0 0 0 0 0 0 0 0 0 0 0 0 0 0 127 0" result="hardAlpha"/>
<feOffset dy="0.42036"/>
<feGaussianBlur stdDeviation="0.63054"/>
<feComposite in2="hardAlpha" operator="out"/>
<feColorMatrix type="matrix" values="0 0 0 0 0 0 0 0 0 0 0 0 0 0 0 0 0 0 0.4 0"/>
<feBlend mode="normal" in2="BackgroundImageFix" result="effect1_dropShadow_3_1582"/>
<feBlend mode="normal" in="SourceGraphic" in2="effect1_dropShadow_3_1582" result="shape"/>
</filter>
<filter id="filter13_d_3_1582" x="206.397" y="59.389" width="16.9088" height="15.7716" filterUnits="userSpaceOnUse" color-interpolation-filters="sRGB">
<feFlood flood-opacity="0" result="BackgroundImageFix"/>
<feColorMatrix in="SourceAlpha" type="matrix" values="0 0 0 0 0 0 0 0 0 0 0 0 0 0 0 0 0 0 127 0" result="hardAlpha"/>
<feOffset dy="0.42036"/>
<feGaussianBlur stdDeviation="0.63054"/>
<feComposite in2="hardAlpha" operator="out"/>
<feColorMatrix type="matrix" values="0 0 0 0 0 0 0 0 0 0 0 0 0 0 0 0 0 0 0.4 0"/>
<feBlend mode="normal" in2="BackgroundImageFix" result="effect1_dropShadow_3_1582"/>
<feBlend mode="normal" in="SourceGraphic" in2="effect1_dropShadow_3_1582" result="shape"/>
</filter>
<filter id="filter14_d_3_1582" x="212.082" y="67.9761" width="18.3384" height="12.7302" filterUnits="userSpaceOnUse" color-interpolation-filters="sRGB">
<feFlood flood-opacity="0" result="BackgroundImageFix"/>
<feColorMatrix in="SourceAlpha" type="matrix" values="0 0 0 0 0 0 0 0 0 0 0 0 0 0 0 0 0 0 127 0" result="hardAlpha"/>
<feOffset dy="0.42036"/>
<feGaussianBlur stdDeviation="0.63054"/>
<feComposite in2="hardAlpha" operator="out"/>
<feColorMatrix type="matrix" values="0 0 0 0 0 0 0 0 0 0 0 0 0 0 0 0 0 0 0.4 0"/>
<feBlend mode="normal" in2="BackgroundImageFix" result="effect1_dropShadow_3_1582"/>
<feBlend mode="normal" in="SourceGraphic" in2="effect1_dropShadow_3_1582" result="shape"/>
</filter>
<filter id="filter15_d_3_1582" x="214.829" y="75.3759" width="23.2429" height="21.9631" filterUnits="userSpaceOnUse" color-interpolation-filters="sRGB">
<feFlood flood-opacity="0" result="BackgroundImageFix"/>
<feColorMatrix in="SourceAlpha" type="matrix" values="0 0 0 0 0 0 0 0 0 0 0 0 0 0 0 0 0 0 127 0" result="hardAlpha"/>
<feOffset dy="0.42036"/>
<feGaussianBlur stdDeviation="0.63054"/>
<feComposite in2="hardAlpha" operator="out"/>
<feColorMatrix type="matrix" values="0 0 0 0 0 0 0 0 0 0 0 0 0 0 0 0 0 0 0.4 0"/>
<feBlend mode="normal" in2="BackgroundImageFix" result="effect1_dropShadow_3_1582"/>
<feBlend mode="normal" in="SourceGraphic" in2="effect1_dropShadow_3_1582" result="shape"/>
</filter>
<clipPath id="clip0_3_1582">
<rect width="198.83" height="93.7402" fill="white" transform="translate(21.8587 24.8012)"/>
</clipPath>
</defs>
</svg>
